<?xml version="1.0" standalone="no"?>
<!DOCTYPE svg PUBLIC "-//W3C//DTD SVG 20010904//EN"
 "http://www.w3.org/TR/2001/REC-SVG-20010904/DTD/svg10.dtd">
<svg version="1.0" xmlns="http://www.w3.org/2000/svg"
 width="1416.000000pt" height="330.000000pt" viewBox="0 0 1416.000000 330.000000"
 preserveAspectRatio="xMidYMid meet">

<g transform="translate(0.000000,330.000000) scale(0.100000,-0.100000)"
fill="#000000" stroke="none">
<path d="M4765 3251 c-292 -147 -660 -729 -755 -1191 -17 -84 -24 -99 -74
-164 -106 -138 -308 -318 -449 -400 l-47 -28 33 73 c47 101 214 450 335 702
l101 207 -29 15 -29 15 -82 -138 c-254 -424 -490 -690 -651 -733 -91 -25 -128
12 -128 125 0 117 70 291 194 481 31 47 56 90 56 96 0 5 -12 15 -27 22 -25 11
-29 8 -99 -66 -79 -85 -145 -179 -192 -272 -69 -138 -226 -330 -323 -394 -105
-70 -180 -74 -233 -10 -71 83 -4 358 182 752 l51 107 204 0 205 0 10 29 c6 16
8 32 5 35 -4 3 -91 6 -195 6 -103 0 -188 2 -188 5 0 6 101 189 161 292 l48 82
-27 17 -26 17 -59 -64 c-55 -60 -237 -321 -237 -340 0 -5 -25 -9 -56 -9 l-56
0 56 51 c173 158 268 387 225 542 -13 49 -63 105 -114 128 -50 23 -159 25
-240 4 -101 -27 -172 -72 -281 -180 -141 -140 -221 -262 -448 -687 l-47 -88
-57 0 c-331 1 -634 132 -723 315 -20 43 -24 64 -24 150 0 89 3 106 27 155 36
73 115 151 192 188 68 34 189 62 266 62 130 0 317 -66 427 -152 l54 -41 20 20
21 20 -59 47 c-139 111 -297 165 -498 173 -148 6 -244 -11 -351 -64 -75 -36
-163 -123 -198 -195 -83 -171 -48 -359 92 -497 143 -141 370 -221 672 -240
l109 -6 -76 -135 c-189 -340 -343 -528 -515 -632 -177 -108 -382 -126 -547
-48 -310 147 -260 595 78 701 157 48 385 8 512 -92 l36 -29 19 21 c18 20 18
21 -6 40 -139 112 -297 168 -470 169 -209 0 -376 -93 -455 -253 -116 -239 -25
-494 217 -607 104 -48 172 -62 301 -61 308 1 571 171 827 531 59 83 133 202
224 362 22 40 32 48 64 54 200 34 328 75 471 149 101 53 107 55 184 55 43 0
77 -3 75 -7 -2 -5 -26 -55 -54 -113 -96 -196 -169 -421 -180 -556 -12 -134 34
-237 123 -276 69 -31 169 -22 251 22 75 40 162 118 222 198 25 34 48 61 53 62
4 0 7 -17 7 -37 0 -41 30 -116 58 -146 31 -34 89 -57 145 -57 80 0 173 50 279
150 l85 79 -102 -200 -102 -200 -99 -57 c-201 -117 -351 -229 -469 -353 -142
-148 -195 -248 -202 -374 -4 -68 -1 -85 16 -113 35 -55 76 -74 152 -69 87 5
165 47 255 135 133 131 238 294 405 627 l101 200 91 58 c197 126 332 236 430
351 60 72 62 73 68 48 4 -15 7 -41 8 -59 2 -60 42 -146 90 -194 37 -38 57 -49
104 -60 72 -15 125 -4 205 44 51 31 175 150 220 212 l21 30 1 -51 c1 -159 99
-267 267 -293 185 -29 375 63 555 267 52 59 148 195 148 209 0 5 -9 14 -19 20
-18 11 -25 5 -77 -70 -89 -129 -223 -255 -321 -304 -89 -45 -200 -69 -261 -58
-92 16 -151 91 -160 202 -5 71 -13 65 101 83 98 15 194 47 294 99 99 51 168
113 213 187 32 53 35 65 35 135 0 62 -4 83 -21 106 -29 40 -99 73 -156 73
-145 0 -377 -159 -492 -337 -25 -39 -46 -74 -46 -77 0 -3 -40 -58 -89 -123
-99 -133 -205 -239 -269 -272 -52 -26 -122 -30 -157 -7 -50 33 -60 69 -60 219
l0 138 66 59 c74 66 227 236 374 415 236 287 429 657 412 787 -7 55 -26 70
-89 75 -44 4 -63 -1 -113 -26z m123 -43 c18 -18 15 -77 -8 -142 -76 -221 -322
-568 -667 -941 -84 -91 -83 -93 -31 80 92 306 314 689 518 895 103 104 160
136 188 108z m-2328 -38 c31 -22 60 -97 60 -154 0 -89 -68 -234 -155 -334
-114 -130 -251 -225 -420 -291 -89 -35 -267 -81 -311 -81 -17 0 46 126 184
370 174 309 318 464 470 507 61 17 135 9 172 -17z m2731 -851 c27 -27 22 -85
-11 -156 -35 -72 -169 -201 -257 -246 -70 -36 -229 -85 -240 -73 -11 10 40
117 97 204 73 110 191 224 273 263 74 34 109 37 138 8z m-2166 -1191 c-142
-316 -311 -564 -432 -635 -91 -53 -168 -26 -168 60 0 137 249 422 543 622 52
35 97 63 100 61 2 -3 -17 -51 -43 -108z"/>
<path d="M7570 2981 c0 -21 19 -31 56 -31 42 0 92 -27 108 -59 14 -26 16 -113
16 -713 0 -630 -1 -686 -18 -718 -18 -37 -64 -58 -129 -59 -27 -1 -33 -5 -33
-23 l0 -23 295 0 295 0 0 23 c0 19 -5 22 -37 23 -56 0 -103 20 -127 52 -20 27
-21 42 -24 368 l-3 339 380 0 381 0 -1 -322 c0 -223 -4 -334 -12 -357 -17 -47
-53 -71 -120 -78 -49 -5 -57 -9 -57 -27 0 -21 1 -21 300 -21 295 0 301 0 298
20 -2 16 -14 21 -52 27 -27 4 -61 12 -75 18 -58 24 -56 -5 -59 745 -2 642 -1
692 15 725 19 36 53 53 136 65 28 5 37 11 37 25 0 19 -9 20 -300 20 -288 0
-300 -1 -300 -19 0 -21 19 -31 59 -31 45 0 88 -19 108 -48 16 -25 18 -58 21
-365 l3 -337 -378 2 -378 3 0 325 c0 249 3 332 13 357 15 35 63 63 110 63 43
0 62 9 62 31 0 18 -12 19 -295 19 -283 0 -295 -1 -295 -19z"/>
<path d="M6562 2918 c-13 -13 -16 -38 -6 -38 4 0 13 8 20 18 12 15 14 16 29 1
14 -14 14 -18 -5 -41 -11 -15 -20 -31 -20 -37 0 -6 -4 -11 -10 -11 -5 0 -25
-13 -43 -30 -19 -16 -54 -39 -78 -50 -82 -38 -124 -65 -127 -83 -5 -23 19 -22
52 4 15 12 30 19 33 16 3 -3 9 -50 13 -104 5 -54 16 -120 24 -147 23 -70 20
-101 -16 -197 -31 -83 -32 -86 -30 -247 2 -187 -14 -292 -73 -460 -85 -246
-193 -421 -320 -519 -51 -41 -48 -57 13 -67 80 -14 90 -18 95 -35 5 -20 57
-36 155 -47 34 -3 62 -10 62 -14 0 -16 166 -33 251 -25 46 4 113 7 149 6 69
-1 170 16 170 28 0 4 34 13 76 19 82 13 130 32 127 49 -1 6 17 14 42 17 75 12
75 26 -3 103 -85 84 -140 165 -202 297 -114 240 -151 400 -148 639 2 156 1
165 -27 237 -38 102 -41 143 -16 234 12 42 21 104 22 139 0 34 4 70 8 80 6 17
8 17 34 -3 32 -25 64 -20 49 7 -10 17 -33 30 -134 78 -31 15 -67 38 -79 51
-12 13 -28 24 -36 24 -18 0 -17 6 8 40 21 28 21 30 5 54 -18 28 -45 33 -64 14z
m112 -193 c47 -22 76 -41 76 -51 0 -26 -61 -79 -112 -99 -46 -17 -50 -17 -93
0 -52 19 -105 68 -105 96 0 14 19 29 68 53 37 18 72 34 78 35 6 0 46 -15 88
-34z"/>
<path d="M9650 2565 c-76 -21 -148 -58 -199 -102 -71 -60 -88 -129 -52 -209
23 -51 61 -68 133 -62 43 5 57 11 81 38 27 30 29 38 25 93 -4 53 -8 64 -40 92
-19 18 -41 34 -49 37 -43 15 73 73 167 83 131 15 224 -30 252 -122 18 -61 16
-283 -3 -311 -25 -35 -90 -66 -230 -112 -228 -75 -332 -138 -381 -231 -26 -51
-31 -187 -9 -246 22 -56 76 -118 126 -143 93 -48 240 -45 341 6 49 25 122 90
150 134 l15 25 12 -53 c6 -29 18 -64 27 -78 47 -71 193 -91 289 -41 84 44 98
60 74 84 -9 9 -18 7 -38 -8 -41 -30 -92 -35 -121 -11 l-25 20 -6 444 c-4 302
-9 455 -18 480 -24 76 -72 131 -145 168 -67 34 -73 35 -195 37 -88 2 -143 -2
-181 -12z m330 -744 l0 -229 -52 -58 c-64 -69 -131 -104 -205 -104 -95 0 -153
40 -178 124 -30 100 -10 195 56 270 34 38 69 61 194 122 84 40 158 81 165 89
7 8 14 15 16 15 2 0 4 -103 4 -229z"/>
<path d="M12030 2566 c-185 -52 -317 -211 -364 -438 -23 -111 -21 -304 3 -400
42 -163 136 -289 263 -352 90 -46 162 -59 279 -54 81 4 107 10 163 36 84 39
172 126 215 210 29 57 30 63 14 69 -10 3 -21 8 -25 10 -3 1 -20 -21 -36 -50
-64 -114 -173 -177 -306 -177 -61 0 -83 5 -134 31 -98 49 -172 148 -208 280
-18 67 -29 230 -20 292 l7 47 365 0 364 0 0 38 c-1 56 -26 181 -46 234 -64
160 -195 239 -391 237 -54 0 -118 -6 -143 -13z m237 -62 c67 -54 101 -148 119
-321 l6 -63 -256 0 -256 0 0 33 c0 53 37 183 67 239 32 58 98 120 145 136 58
20 133 9 175 -24z"/>
<path d="M13435 2563 c-63 -23 -133 -64 -162 -95 -12 -12 -38 -50 -57 -82
l-36 -60 0 123 0 123 -32 -6 c-18 -4 -106 -9 -195 -13 l-163 -5 0 -24 c0 -20
5 -24 31 -24 55 0 100 -29 123 -79 20 -45 21 -59 21 -481 0 -401 -1 -438 -18
-472 -20 -40 -73 -68 -127 -68 -24 0 -30 -4 -30 -22 l0 -23 270 0 270 0 0 23
c0 17 -6 22 -25 22 -43 0 -93 27 -109 59 -14 26 -16 82 -16 380 0 382 4 412
64 515 91 156 305 208 398 97 45 -53 49 -104 46 -557 -3 -386 -4 -421 -21
-446 -19 -28 -63 -48 -103 -48 -18 0 -24 -6 -24 -22 l0 -23 270 0 c268 0 270
0 270 21 0 18 -8 22 -51 27 -57 7 -92 26 -111 59 -10 17 -14 131 -19 458 -4
378 -7 441 -22 481 -24 63 -70 115 -131 146 -44 23 -66 27 -156 30 -82 3 -116
-1 -155 -14z"/>
<path d="M10390 2523 c0 -14 6 -23 15 -23 30 0 66 -25 87 -59 12 -19 122 -274
243 -566 186 -447 224 -530 241 -533 13 -2 24 4 28 15 4 10 93 243 198 518
105 275 199 517 209 537 20 40 76 88 102 88 11 0 17 8 17 25 l0 25 -186 0
-185 0 3 -22 c2 -19 11 -24 49 -29 91 -13 125 -51 116 -127 -5 -42 -259 -726
-276 -744 -12 -13 -304 722 -309 777 -6 67 16 87 98 93 54 4 60 7 60 26 l0 22
-255 0 -255 -1 0 -22z"/>
<path d="M6277 243 c-31 -32 -57 -63 -57 -69 0 -17 91 -114 107 -114 19 0 123
91 123 108 0 7 -26 40 -58 73 l-59 60 -56 -58z"/>
<path d="M7023 234 c-29 -29 -53 -57 -53 -62 0 -14 105 -112 120 -112 8 0 33
18 55 38 74 71 73 64 14 132 -30 33 -60 60 -69 59 -8 0 -39 -25 -67 -55z"/>
<path d="M5580 170 c0 -5 7 -10 15 -10 8 0 15 5 15 10 0 6 -7 10 -15 10 -8 0
-15 -4 -15 -10z"/>
</g>
</svg>
